<svg width="32" height="32" viewBox="0 0 32 32" fill="none" xmlns="http://www.w3.org/2000/svg">
<rect width="32" height="32" fill="#310A90"/>
<path d="M17.2031 4.25H21.8906V20C21.8906 21.4479 21.5677 22.7292 20.9219 23.8438C20.2865 24.9479 19.3854 25.8021 18.2188 26.4062C17.0521 27.0104 15.7344 27.3125 14.2656 27.3125C11.8594 27.3125 9.98438 26.7031 8.64062 25.4844C7.29688 24.2552 6.625 22.5208 6.625 20.2812H11.3438C11.3438 21.3958 11.5781 22.2188 12.0469 22.75C12.5156 23.2812 13.2552 23.5469 14.2656 23.5469C15.1615 23.5469 15.875 23.2396 16.4062 22.625C16.9375 22.0104 17.2031 21.1354 17.2031 20V4.25Z" fill="white"/>
</svg>
